{"title":"Frozen Impact 2003 DVDrip English Klam","uid":5792770,"size":1475265568,"categoryP":"video","categoryS":"movies","magnet":"?xt=urn:btih:0644ea7346c2c7379f0fa79bde075972f9cc83ba&amp;dn=Frozen+Impact+2003+DVDrip+English+Klam&amp;tr=udp%3A%2F%2Ftracker.openbittorrent.com%3A80&amp;tr=udp%3A%2F%2Fopen.demonii.com%3A1337&amp;tr=udp%3A%2F%2Ftracker.coppersurfer.tk%3A6969&amp;tr=udp%3A%2F%2Fexodus.desync.com%3A6969","seeders":0,"leechers":2,"uploader":"Klambake","files":-1,"time":1282870622,"description":"With: Ted Mcginley, Linda Purl en Stacy Keach\n\nIn Rutland, Vermont, Forestry Service supervisor Dan Blanchard and his wife Dr. Christy Blanchard hope life will return to normal now a transplant liver is expected for their brave son Jason (12). Daughter Marie was ordered to bring Jason to perform magic on Pete Crane's big car auction, but she sneaks off to go mountaineering with friends. The violent hail storm Medusa causes the small jet to crash in the forest. When Dan gets there, the brave paramedic, who unlike pilot Tom survived, urges him to take the liver and rush back, it's only good for a few more hours, but the storm rages on.\n\nGeneral:\n\nComplete name                    : Frozen Impact\\Frozen Impact.avi\nFormat                           : AVI\nFormat/Info                      : Audio Video Interleave\nFile size                        : 1.37 GiB\nDuration                         : 1h 30mn\nOverall bit rate                 : 2 165 Kbps\n\nVideo:\n\nFormat                           : MPEG-4 Visual\nFormat profile                   : Simple@L3\nFormat settings, BVOP            : No\nFormat settings, QPel            : No\nFormat settings, GMC             : No warppoints\nFormat settings, Matrix          : Default (H.263)\nCodec ID                         : XVID\nCodec ID/Hint                    : XviD\nDuration                         : 1h 30mn\nBit rate                         : 1 706 Kbps\nWidth                            : 720 pixels\nHeight                           : 400 pixels\nDisplay aspect ratio             : 16:9\nFrame rate                       : 25.000 fps\nColor space                      : YUV\nChroma subsampling               : 4:2:0\nBit depth                        : 8 bits\nScan type                        : Progressive\nBits/(Pixel*Frame)               : 0.237\nStream size                      : 1.08 GiB (79%)\nWriting library                  : XviD 1.1.2 (UTC 2006-11-01)\n\nAudio:\n\nFormat                           : AC-3\nFormat/Info                      : Audio Coding 3\nMode extension                   : CM (complete main)\nCodec ID                         : 2000\nDuration                         : 1h 30mn\nBit rate mode                    : Constant\nBit rate                         : 448 Kbps\nChannel(s)                       : 6 channels\nChannel positions                : Front: L C R, Side: L R, LFE\nSampling rate                    : 48.0 KHz\nStream size                      : 291 MiB (21%)\nAlignment                        : Aligned on interleaves\nInterleave, duration             : 32 ms (0.80 video frame)","torrent":{"xt":"urn:btih:0644ea7346c2c7379f0fa79bde075972f9cc83ba","amp;dn":"Frozen+Impact+2003+DVDrip+English+Klam","amp;tr":["udp%3A%2F%2Ftracker.openbittorrent.com%3A80","udp%3A%2F%2Fopen.demonii.com%3A1337","udp%3A%2F%2Ftracker.coppersurfer.tk%3A6969","udp%3A%2F%2Fexodus.desync.com%3A6969"],"infoHash":"0644ea7346c2c7379f0fa79bde075972f9cc83ba","infoHashBuffer":{"type":"Buffer","data":[6,68,234,115,70,194,199,55,159,15,167,155,222,7,89,114,249,204,131,186]},"announce":[],"urlList":[]}}